<svg width="43" height="43" viewBox="0 0 43 43" fill="none" xmlns="http://www.w3.org/2000/svg">
<path d="M21.5 16.5008L36.5012 1.4996C37.8817 0.119109 40.1199 0.119112 41.5004 1.49961V1.49961C42.8809 2.8801 42.8809 5.11833 41.5004 6.49882L26.4992 21.5L41.4986 36.4994C42.88 37.8807 42.8796 40.1204 41.4977 41.5013V41.5013C40.1166 42.8814 37.8783 42.881 36.4976 41.5004L21.4965 26.4992L6.50046 41.4982C5.11925 42.8797 2.87947 42.8795 1.4986 41.4976V41.4976C0.118518 40.1166 0.118913 37.8783 1.49948 36.4978L16.5008 21.4965L1.49974 6.49542C0.119459 5.11514 0.120247 2.87702 1.5015 1.49771V1.49771C2.88128 0.119891 5.11647 0.120569 6.49541 1.49923L21.5 16.5008Z" fill="black"/>
</svg>
