<svg width="50" height="50" viewBox="0 0 50 50" fill="none" xmlns="http://www.w3.org/2000/svg">
<path fill-rule="evenodd" clip-rule="evenodd" d="M11.7188 0H38.2812C44.7533 0 50 5.24666 50 11.7188V38.2812C50 44.7533 44.7533 50 38.2812 50H11.7188C5.24666 50 0 44.7533 0 38.2812V11.7188C0 5.24666 5.24666 0 11.7188 0ZM7.21277 18.7509C7.07304 19.0121 6.99996 19.3038 7 19.6001V30.3999C6.99996 30.6962 7.07304 30.9879 7.21277 31.2491C7.3525 31.5104 7.55455 31.7331 7.801 31.8975L24.001 42.6973C24.2968 42.8947 24.6444 43 25 43C25.3556 43 25.7032 42.8947 25.999 42.6973L42.199 31.8975C42.4455 31.7331 42.6475 31.5104 42.7872 31.2491C42.927 30.9879 43 30.6962 43 30.3999V19.6001C43 19.3038 42.927 19.0121 42.7872 18.7509C42.6475 18.4896 42.4455 18.2669 42.199 18.1025L25.999 7.30266C25.7032 7.10532 25.3556 7 25 7C24.6444 7 24.2968 7.10532 24.001 7.30266L7.801 18.1025C7.55455 18.2669 7.3525 18.4896 7.21277 18.7509ZM25 21.7636L20.1454 25L25 28.2364L29.8546 25L25 21.7636ZM33.1 22.8364L37.9546 19.6001L26.8 12.1644V18.6371L33.1 22.8364ZM39.4 22.9624L36.3454 25L39.4 27.0376V22.9624ZM33.1 27.1636L26.8 31.3629V37.8356L37.9546 30.3999L33.1 27.1636ZM23.2 18.6371V12.1644L12.0454 19.6001L16.9 22.8364L23.2 18.6371ZM12.0454 30.3999L23.2 37.8356V31.3629L16.9 27.1636L12.0454 30.3999ZM13.6546 25L10.6 22.9624V27.0376L13.6546 25Z" fill="#140D0D"/>
</svg>
