<svg width="27" height="25" viewBox="0 0 27 25" fill="none" xmlns="http://www.w3.org/2000/svg">
<path d="M1.33333 0.5H25.3333C25.687 0.5 26.0261 0.640476 26.2761 0.890524C26.5262 1.14057 26.6667 1.47971 26.6667 1.83333V23.1667C26.6667 23.5203 26.5262 23.8594 26.2761 24.1095C26.0261 24.3595 25.687 24.5 25.3333 24.5H1.33333C0.979711 24.5 0.640573 24.3595 0.390524 24.1095C0.140476 23.8594 0 23.5203 0 23.1667V1.83333C0 1.47971 0.140476 1.14057 0.390524 0.890524C0.640573 0.640476 0.979711 0.5 1.33333 0.5ZM24 6.15067L13.4293 15.6173L2.66667 6.12133V21.8333H24V6.15067ZM3.348 3.16667L13.4147 12.0493L23.336 3.16667H3.348Z" fill="black"/>
</svg>
