<svg width="100" height="100" viewBox="0 0 100 100" fill="none" xmlns="http://www.w3.org/2000/svg">
<path d="M76.5625 0.000244141H23.4375C10.4933 0.000244141 0 10.4936 0 23.4377V76.5627C0 89.5069 10.4933 100 23.4375 100H76.5625C89.5067 100 100 89.5069 100 76.5627V23.4377C100 10.4936 89.5067 0.000244141 76.5625 0.000244141Z" fill="#0277BD"/>
<path d="M20.9973 40.0983L22.1152 52.5756H50.0375V40.0983H20.9973ZM50.0371 14.844H18.75L19.8844 27.3214H50.0371V14.844ZM50.0371 85.485V72.5034L49.9824 72.5178L36.0863 68.7659L35.1981 58.8143H22.6727L24.4207 78.4057L49.9797 85.501L50.0371 85.485Z" fill="#EBEBEB"/>
<path d="M65.3587 52.5756L63.9103 68.7577L49.9943 72.5139V85.4948L75.5736 78.4057L78.6931 43.4491L78.9974 40.0983L81.2502 14.844H49.9943V27.3213H67.5759L66.4408 40.0983H49.9943V52.5756H65.3587Z" fill="#F1EBC9"/>
</svg>
