<svg width="56" height="55" viewBox="0 0 56 55" fill="none" xmlns="http://www.w3.org/2000/svg">
<path d="M42.4429 0H13.2241C6.10483 0 0.333496 5.77133 0.333496 12.8906V42.1094C0.333496 49.2287 6.10483 55 13.2241 55H42.4429C49.5622 55 55.3335 49.2287 55.3335 42.1094V12.8906C55.3335 5.77133 49.5622 0 42.4429 0Z" fill="#242938"/>
<path d="M20.6035 48.9844C24.5567 48.9844 27.7649 45.7761 27.7649 41.823V34.6614H20.6035C16.6504 34.6614 13.4419 37.8699 13.4419 41.823C13.4419 45.7761 16.6504 48.9844 20.6035 48.9844Z" fill="#0ACF83"/>
<path d="M13.4419 27.4999C13.4419 23.5468 16.6504 20.3385 20.6035 20.3385H27.7649V34.6614H20.6035C16.6504 34.6614 13.4419 31.453 13.4419 27.4999Z" fill="#A259FF"/>
<path d="M13.442 13.177C13.442 9.22389 16.6505 6.01562 20.6036 6.01562H27.765L27.7649 20.3385H20.6035C16.6504 20.3385 13.442 17.1301 13.442 13.177Z" fill="#F24E1E"/>
<path d="M27.765 6.01562H34.9261C38.8792 6.01562 42.0877 9.22389 42.0877 13.177C42.0877 17.1301 38.8792 20.3386 34.9261 20.3386L27.7649 20.3385L27.765 6.01562Z" fill="#FF7262"/>
<path d="M42.0877 27.4999C42.0877 31.453 38.8792 34.6613 34.9261 34.6613C30.973 34.6613 27.7647 31.453 27.7647 27.4999C27.7647 23.5468 30.973 20.3386 34.9261 20.3386C38.8792 20.3386 42.0877 23.5468 42.0877 27.4999Z" fill="#1ABCFE"/>
</svg>
