<svg width="100" height="100" viewBox="0 0 100 100" fill="none" xmlns="http://www.w3.org/2000/svg">
<path d="M76.5625 0H23.4375C10.4933 0 0 10.4933 0 23.4375V76.5625C0 89.5067 10.4933 100 23.4375 100H76.5625C89.5067 100 100 89.5067 100 76.5625V23.4375C100 10.4933 89.5067 0 76.5625 0Z" fill="black"/>
<path d="M36.8532 89.0625C44.0407 89.0625 49.8739 83.2293 49.8739 76.0418V63.0208H36.8532C29.6657 63.0208 23.8321 68.8543 23.8321 76.0418C23.8321 83.2293 29.6657 89.0625 36.8532 89.0625Z" fill="#0ACF83"/>
<path d="M23.8321 50C23.8321 42.8125 29.6657 36.9792 36.8532 36.9792H49.8739V63.0208H36.8532C29.6657 63.0208 23.8321 57.1874 23.8321 50Z" fill="#A259FF"/>
<path d="M23.8322 23.9582C23.8322 16.7707 29.6658 10.9375 36.8533 10.9375H49.874L49.8739 36.9792H36.8532C29.6657 36.9792 23.8322 31.1457 23.8322 23.9582Z" fill="#F24E1E"/>
<path d="M49.874 10.9375H62.8946C70.0821 10.9375 75.9157 16.7707 75.9157 23.9582C75.9157 31.1457 70.0821 36.9793 62.8946 36.9793L49.8739 36.9792L49.874 10.9375Z" fill="#FF7262"/>
<path d="M75.9157 50C75.9157 57.1874 70.0821 63.0206 62.8946 63.0206C55.7071 63.0206 49.8739 57.1874 49.8739 50C49.8739 42.8125 55.7071 36.9793 62.8946 36.9793C70.0821 36.9793 75.9157 42.8125 75.9157 50Z" fill="#1ABCFE"/>
</svg>
