<svg width="14" height="18" viewBox="0 0 14 18" fill="none" xmlns="http://www.w3.org/2000/svg">
<path d="M5.93796 17.364C6.12548 17.5515 6.37979 17.6568 6.64496 17.6568C6.91012 17.6568 7.16443 17.5515 7.35196 17.364L13.009 11.707C13.1045 11.6148 13.1806 11.5044 13.2331 11.3824C13.2855 11.2604 13.3131 11.1292 13.3142 10.9964C13.3154 10.8636 13.2901 10.7319 13.2398 10.609C13.1895 10.4861 13.1152 10.3745 13.0213 10.2806C12.9275 10.1867 12.8158 10.1125 12.6929 10.0622C12.57 10.0119 12.4383 9.98659 12.3056 9.98775C12.1728 9.9889 12.0416 10.0165 11.9196 10.0689C11.7975 10.1213 11.6872 10.1975 11.595 10.293L7.64496 14.243V1C7.64496 0.734783 7.5396 0.480429 7.35206 0.292892C7.16453 0.105356 6.91017 0 6.64496 0C6.37974 0 6.12539 0.105356 5.93785 0.292892C5.75031 0.480429 5.64496 0.734783 5.64496 1V14.243L1.69496 10.293C1.50635 10.1108 1.25375 10.01 0.991556 10.0123C0.729359 10.0146 0.478546 10.1198 0.293138 10.3052C0.10773 10.4906 0.00256027 10.7414 0.00028194 11.0036C-0.00199639 11.2658 0.0987974 11.5184 0.280956 11.707L5.93796 17.364Z" fill="black"/>
</svg>
