<svg width="101" height="101" viewBox="0 0 101 101" fill="none" xmlns="http://www.w3.org/2000/svg">
<path d="M77.229 0.33374H24.104C11.1598 0.33374 0.666504 10.8271 0.666504 23.7712V76.8962C0.666504 89.8404 11.1598 100.334 24.104 100.334H77.229C90.1732 100.334 100.667 89.8404 100.667 76.8962V23.7712C100.667 10.8271 90.1732 0.33374 77.229 0.33374Z" fill="#242938"/>
<path d="M50.6669 12.0524C29.0958 12.0524 11.604 29.5407 11.604 51.1153C11.604 68.3743 22.7966 83.0165 38.3177 88.1817C40.2697 88.5434 40.9865 87.3344 40.9865 86.3028C40.9865 85.3712 40.9501 82.2942 40.9333 79.0302C30.0662 81.393 27.7732 74.4212 27.7732 74.4212C25.9958 69.9059 23.4357 68.7055 23.4357 68.7055C19.8915 66.2809 23.7029 66.3309 23.7029 66.3309C27.6255 66.6063 29.6912 70.3563 29.6912 70.3563C33.1751 76.3282 38.8294 74.6016 41.0583 73.6036C41.4091 71.0786 42.4212 69.3555 43.5384 68.3801C34.8622 67.3923 25.7415 64.0427 25.7415 49.0751C25.7415 44.8102 27.2673 41.3255 29.7662 38.5899C29.3603 37.6059 28.0232 33.6329 30.1443 28.2524C30.1443 28.2524 33.4247 27.2028 40.8896 32.2563C44.0056 31.3911 47.347 30.9571 50.6669 30.9423C53.9865 30.9571 57.331 31.3911 60.4525 32.2567C67.9083 27.2024 71.1841 28.2528 71.1841 28.2528C73.3103 33.6329 71.9728 37.6063 71.5669 38.5899C74.0716 41.3255 75.5872 44.8102 75.5872 49.0751C75.5872 64.0786 66.449 67.3821 57.7505 68.3489C59.1517 69.5614 60.4001 71.9384 60.4001 75.5829C60.4001 80.8094 60.3548 85.0161 60.3548 86.3028C60.3548 87.3423 61.058 88.5602 63.038 88.1766C78.5505 83.0055 89.729 68.3684 89.729 51.1153C89.729 29.5411 72.2396 12.0524 50.6669 12.0524ZM26.2345 67.6981C26.1486 67.8923 25.8431 67.9505 25.565 67.8173C25.2814 67.6899 25.1224 67.4251 25.2142 67.2305C25.2982 67.0305 25.6044 66.9751 25.8869 67.1091C26.1708 67.2364 26.3326 67.5036 26.2345 67.6981ZM28.156 69.4126C27.9697 69.5856 27.6052 69.5052 27.3583 69.2321C27.1029 68.9598 27.0548 68.5958 27.2439 68.4204C27.4357 68.2477 27.7892 68.3286 28.0451 68.6009C28.3005 68.8766 28.3505 69.238 28.156 69.4126ZM29.474 71.6063C29.2345 71.7727 28.8431 71.6169 28.6013 71.2692C28.3619 70.9219 28.3619 70.5055 28.6064 70.3384C28.849 70.1716 29.2345 70.3216 29.4798 70.6665C29.7185 71.0196 29.7185 71.4364 29.474 71.6063ZM31.7033 74.1469C31.4892 74.3829 31.0333 74.3196 30.6994 73.9973C30.358 73.6825 30.2626 73.2356 30.4775 72.9993C30.6943 72.7626 31.1529 72.8294 31.4892 73.1489C31.8283 73.463 31.9318 73.9134 31.7033 74.1469ZM34.5845 75.0044C34.49 75.3106 34.0509 75.4497 33.6083 75.3196C33.1669 75.1856 32.8775 74.8274 32.9669 74.518C33.0587 74.2102 33.4997 74.0653 33.9454 74.2044C34.3869 74.3376 34.6763 74.6934 34.5845 75.0044ZM37.8634 75.3684C37.8744 75.6903 37.4994 75.9575 37.0349 75.9634C36.5677 75.9739 36.19 75.713 36.1849 75.3962C36.1849 75.0708 36.5517 74.8063 37.0185 74.7985C37.4833 74.7895 37.8634 75.0481 37.8634 75.3684ZM41.0845 75.245C41.1404 75.5591 40.8177 75.8821 40.3564 75.968C39.9029 76.0509 39.483 75.8567 39.4255 75.545C39.3693 75.2227 39.6978 74.9001 40.1505 74.8165C40.6126 74.7364 41.0259 74.9255 41.0845 75.245Z" fill="#F1EBC9"/>
</svg>
