<svg width="50" height="50" viewBox="0 0 50 50" fill="none" xmlns="http://www.w3.org/2000/svg">
<path fill-rule="evenodd" clip-rule="evenodd" d="M11.7188 0H38.2812C44.7533 0 50 5.24666 50 11.7188V38.2812C50 44.7533 44.7533 50 38.2812 50H11.7188C5.24666 50 0 44.7533 0 38.2812V11.7188C0 5.24666 5.24666 0 11.7188 0ZM5.46875 25.3908C5.46875 14.6035 14.2146 5.85938 25.0002 5.85938C35.7865 5.85938 44.5312 14.6037 44.5312 25.3908C44.5312 34.0174 38.942 41.3359 31.1857 43.9215C30.1957 44.1133 29.8441 43.5043 29.8441 42.9846C29.8441 42.7712 29.8466 42.3973 29.85 41.8975C29.8567 40.8901 29.8668 39.3713 29.8668 37.6246C29.8668 35.8023 29.2426 34.6139 28.542 34.0076C32.8912 33.5242 37.4604 31.8725 37.4604 24.3707C37.4604 22.2383 36.7025 20.4959 35.4502 19.1281C35.6531 18.6363 36.3219 16.6496 35.2588 13.9596C35.2588 13.9596 33.6209 13.4344 29.893 15.9615C28.3322 15.5287 26.66 15.3117 25.0002 15.3043C23.3402 15.3117 21.6695 15.5287 20.1115 15.9613C16.3791 13.4346 14.7389 13.9594 14.7389 13.9594C13.6783 16.6496 14.3469 18.6361 14.5498 19.1281C13.3004 20.4959 12.5375 22.2383 12.5375 24.3707C12.5375 31.8545 17.0979 33.5293 21.4359 34.0232C20.8773 34.5109 20.3713 35.3725 20.1959 36.635C19.0814 37.134 16.2543 37.9973 14.5123 35.0113C14.5123 35.0113 13.4795 33.1363 11.5182 32.9986C11.5182 32.9986 9.6125 32.9736 11.3846 34.1859C11.3846 34.1859 12.6646 34.7861 13.5533 37.0438C13.5533 37.0438 14.6998 40.5297 20.1334 39.3482C20.138 40.2363 20.1454 41.0967 20.1513 41.7716C20.1562 42.337 20.16 42.7722 20.16 42.9846C20.16 43.5004 19.8016 44.1049 18.8256 43.924C11.065 41.3414 5.46875 34.0203 5.46875 25.3908Z" fill="#140D0D"/>
</svg>
