<svg width="100" height="101" viewBox="0 0 100 101" fill="none" xmlns="http://www.w3.org/2000/svg">
<path d="M76.5625 0.833496H23.4375C10.4933 0.833496 0 11.3268 0 24.271V77.396C0 90.3402 10.4933 100.833 23.4375 100.833H76.5625C89.5067 100.833 100 90.3402 100 77.396V24.271C100 11.3268 89.5067 0.833496 76.5625 0.833496Z" fill="#E14E1D"/>
<path d="M18.75 15.6772L22.1133 53.4089H65.3594L63.9082 69.5925L49.984 73.3573L36.0859 69.5979L35.1566 59.2065H22.6328L24.4238 79.2382L49.9812 86.3366L75.5711 79.2382L79.002 40.9331H33.525L32.3832 28.1558H80.1324L81.25 15.6772H18.75Z" fill="#F1EBC9"/>
<path d="M50 15.6772H18.75L22.1133 53.4089H50V40.9331H33.525L32.3832 28.1558H50V15.6772ZM50 73.3519L49.984 73.3573L36.0859 69.5979L35.1566 59.2065H22.6328L24.4238 79.2382L49.9812 86.3366L50.0004 86.3311L50 73.3519Z" fill="#EBEBEB"/>
</svg>
