<svg width="101" height="101" viewBox="0 0 101 101" fill="none" xmlns="http://www.w3.org/2000/svg">
<path d="M76.896 0.666504H23.771C10.8268 0.666504 0.333496 11.1598 0.333496 24.104V77.229C0.333496 90.1732 10.8268 100.667 23.771 100.667H76.896C89.8402 100.667 100.333 90.1732 100.333 77.229V24.104C100.333 11.1598 89.8402 0.666504 76.896 0.666504Z" fill="#F0DB4F"/>
<path d="M26.6273 84.2338L34.2796 79.6025C35.7562 82.2201 37.0991 84.435 40.3206 84.435C43.4085 84.435 45.3554 83.2271 45.3554 78.5287V46.5764H54.753V78.6615C54.753 88.3947 49.0476 92.8252 40.7233 92.8252C33.2058 92.8252 28.8425 88.9326 26.6273 84.2338ZM59.8573 83.2267L67.5089 78.7967C69.5233 82.0861 72.1413 84.5025 76.7726 84.5025C80.6667 84.5025 83.1495 82.5556 83.1495 79.8705C83.1495 76.6486 80.5987 75.5072 76.3026 73.6283L73.9538 72.6209C67.1737 69.7349 62.6761 66.11 62.6761 58.4576C62.6761 51.4092 68.0464 46.0389 76.4374 46.0389C82.4116 46.0389 86.7077 48.1201 89.7952 53.5572L82.4784 58.256C80.8671 55.3697 79.1226 54.2287 76.4374 54.2287C73.6851 54.2287 71.9398 55.974 71.9398 58.256C71.9398 61.0752 73.6851 62.2166 77.7124 63.9623L80.0616 64.9689C88.0495 68.3928 92.5472 71.8826 92.5472 79.7361C92.5472 88.1947 85.9019 92.826 76.9741 92.826C68.248 92.826 62.6093 88.6642 59.8573 83.2267Z" fill="#323330"/>
</svg>
