<svg width="50" height="50" viewBox="0 0 50 50" fill="none" xmlns="http://www.w3.org/2000/svg">
<path d="M42.6 42.6083H35.1972V31.0056C35.1972 28.2389 35.1417 24.6778 31.3361 24.6778C27.4778 24.6778 26.8889 27.6889 26.8889 30.8028V42.6083H19.4833V18.75H26.5944V22H26.6917C27.6861 20.1278 30.1028 18.1472 33.7139 18.1472C41.2139 18.1472 42.6028 23.0861 42.6028 29.5139L42.6 42.6083ZM11.1222 15.4861C10.5571 15.4868 9.99739 15.376 9.47517 15.16C8.95296 14.944 8.47852 14.6271 8.07905 14.2273C7.67957 13.8276 7.36292 13.3529 7.14725 12.8306C6.93158 12.3082 6.82112 11.7485 6.82222 11.1833C6.82277 10.3329 7.0755 9.50168 7.54845 8.79485C8.02139 8.08802 8.69332 7.53732 9.47925 7.21237C10.2652 6.88742 11.1298 6.80282 11.9638 6.96928C12.7978 7.13573 13.5638 7.54576 14.1647 8.14752C14.7657 8.74927 15.1748 9.51572 15.3401 10.3499C15.5055 11.1842 15.4198 12.0487 15.0938 12.8342C14.7679 13.6197 14.2163 14.2909 13.5089 14.763C12.8014 15.235 11.9699 15.4867 11.1194 15.4861M14.8306 42.6083H7.40833V18.75H14.8333L14.8306 42.6083ZM46.3056 0H3.69444C1.65 0 0 1.61111 0 3.60278V46.3972C0 48.3889 1.65 50 3.68889 50H46.2972C48.3333 50 50 48.3889 50 46.3972V3.60278C50 1.61389 48.3333 0 46.2944 0H46.3056Z" fill="black"/>
</svg>
