<svg width="50" height="50" viewBox="0 0 50 50" fill="none" xmlns="http://www.w3.org/2000/svg">
<path fill-rule="evenodd" clip-rule="evenodd" d="M11.7188 0H38.2812C44.7533 0 50 5.24666 50 11.7188V38.2812C50 44.7533 44.7533 50 38.2812 50H11.7188C5.24666 50 0 44.7533 0 38.2812V11.7188C0 5.24666 5.24666 0 11.7188 0ZM11.1222 15.4861C10.5571 15.4868 9.99739 15.376 9.47517 15.16C8.95296 14.944 8.47852 14.6271 8.07905 14.2273C7.67957 13.8276 7.36292 13.3529 7.14725 12.8306C6.93158 12.3082 6.82112 11.7485 6.82222 11.1833C6.82277 10.3329 7.0755 9.50168 7.54845 8.79485C8.02139 8.08802 8.69332 7.53732 9.47925 7.21237C10.2652 6.88742 11.1298 6.80282 11.9638 6.96928C12.7978 7.13573 13.5638 7.54576 14.1647 8.14752C14.7657 8.74927 15.1748 9.51572 15.3401 10.3499C15.5055 11.1842 15.4198 12.0487 15.0938 12.8342C14.7679 13.6197 14.2163 14.2909 13.5089 14.763C12.8033 15.2338 11.975 15.4853 11.1269 15.4861L11.1222 15.4861ZM14.8306 42.6083H7.40833V18.75H14.8333L14.8306 42.6083ZM35.1972 42.6083H42.6L42.6028 29.5139C42.6028 23.0861 41.2139 18.1472 33.7139 18.1472C30.1028 18.1472 27.6861 20.1278 26.6917 22H26.5944V18.75H19.4833V42.6083H26.8889V30.8028C26.8889 27.6889 27.4778 24.6778 31.3361 24.6778C35.1417 24.6778 35.1972 28.2389 35.1972 31.0056V42.6083Z" fill="#140D0D"/>
</svg>
