<svg width="101" height="100" viewBox="0 0 101 100" fill="none" xmlns="http://www.w3.org/2000/svg">
<path d="M76.8955 0.000488281H23.7705C10.8263 0.000488281 0.333008 10.4938 0.333008 23.438V76.563C0.333008 89.5072 10.8263 100 23.7705 100H76.8955C89.8397 100 100.333 89.5072 100.333 76.563V23.438C100.333 10.4938 89.8397 0.000488281 76.8955 0.000488281Z" fill="#242938"/>
<path d="M19.5353 39.159H30.6322C33.8892 39.1866 36.2494 40.1252 37.7127 41.9747C39.1757 43.8239 39.6587 46.3497 39.1619 49.552C38.9686 51.015 38.5408 52.4504 37.8783 53.8583C37.2434 55.2661 36.3601 56.5359 35.2283 57.6676C33.8481 59.1028 32.3712 60.0137 30.7978 60.4004C29.2241 60.7869 27.5955 60.9801 25.9119 60.9801H20.9431L19.3697 68.8473H13.6142L19.5353 39.159ZM24.3798 43.8794L21.8955 56.3012C22.0611 56.3288 22.2267 56.3426 22.3923 56.3426H22.972C25.6223 56.3702 27.8306 56.108 29.597 55.5559C31.3637 54.9762 32.5507 52.9611 33.158 49.5106C33.6548 46.6122 33.158 44.9421 31.6673 44.5004C30.2043 44.059 28.3686 43.852 26.1603 43.8794C25.8293 43.907 25.5119 43.9208 25.208 43.9208H24.3384L24.3798 43.8794ZM45.7181 31.2504H51.4322L49.8173 39.159H54.9517C57.7671 39.2145 59.865 39.7942 61.2455 40.8981C62.6533 42.0023 63.0673 44.1002 62.4877 47.1918L59.7134 60.9801H53.9166L56.5666 47.8129C56.8423 46.4327 56.7595 45.4528 56.3181 44.8731C55.8767 44.2934 54.9244 44.0036 53.4611 44.0036L48.865 43.9622L45.4697 60.9801H39.7556L45.7181 31.2504ZM68.6236 39.159H79.7205C82.9775 39.1866 85.3377 40.1252 86.8009 41.9747C88.264 43.8239 88.747 46.3497 88.2502 49.552C88.0569 51.015 87.6291 52.4504 86.9666 53.8583C86.3317 55.2661 85.4483 56.5359 84.3166 57.6676C82.9364 59.1028 81.4595 60.0137 79.8861 60.4004C78.3124 60.7869 76.6837 60.9801 75.0002 60.9801H70.0314L68.458 68.8473H62.7025L68.6236 39.159ZM73.4681 43.8794L70.9837 56.3012C71.1494 56.3288 71.315 56.3426 71.4806 56.3426H72.0603C74.7106 56.3702 76.9189 56.108 78.6853 55.5559C80.452 54.9762 81.639 52.9611 82.2463 49.5106C82.7431 46.6122 82.2463 44.9421 80.7556 44.5004C79.2926 44.059 77.4569 43.852 75.2486 43.8794C74.9173 43.907 74.5999 43.9208 74.2962 43.9208H73.4267L73.4681 43.8794Z" fill="#F1EBC9"/>
</svg>
