<svg width="24" height="25" viewBox="0 0 24 25" fill="none" xmlns="http://www.w3.org/2000/svg">
<path d="M24 18.3933V23.108C24.0002 23.4456 23.8723 23.7706 23.6421 24.0176C23.412 24.2646 23.0967 24.415 22.76 24.4387C22.1778 24.4796 21.7022 24.5 21.3333 24.5C9.55067 24.5 0 14.9493 0 3.16667C0 2.79867 0.0204445 2.32311 0.0613333 1.74C0.0849632 1.40326 0.235442 1.08801 0.482405 0.857878C0.729368 0.627742 1.05443 0.499847 1.392 0.5H6.10667C6.27205 0.499833 6.4316 0.561145 6.55431 0.672027C6.67701 0.782909 6.75413 0.935444 6.77067 1.1C6.80089 1.40578 6.82933 1.65111 6.856 1.836C7.12096 3.68524 7.66399 5.48378 8.46667 7.17067C8.59333 7.43733 8.51067 7.756 8.27067 7.92667L5.39333 9.98267C7.15295 14.0817 10.4196 17.3484 14.5187 19.108L16.572 16.236C16.6556 16.1182 16.778 16.0338 16.9178 15.9974C17.0575 15.9611 17.2056 15.9752 17.336 16.0373C19.0227 16.8385 20.8208 17.3802 22.6693 17.644C22.8542 17.6707 23.0987 17.6991 23.4027 17.7293C23.567 17.7462 23.7192 17.8234 23.8298 17.9461C23.9404 18.0688 24.0002 18.2282 24 18.3933Z" fill="black"/>
</svg>
