<svg width="25" height="25" viewBox="0 0 25 25" fill="none" xmlns="http://www.w3.org/2000/svg">
<path d="M12.219 0L20.646 8.42701L18.7262 10.3467L13.5766 5.19713V18.2117H10.8613V5.19713L5.71169 10.3467L3.79195 8.42701L12.219 0ZM0 20.927V15.4964H2.71533V20.927C2.71533 21.2871 2.85836 21.6324 3.11298 21.887C3.36759 22.1416 3.71291 22.2847 4.07299 22.2847H20.3649C20.725 22.2847 21.0703 22.1416 21.325 21.887C21.5796 21.6324 21.7226 21.2871 21.7226 20.927V15.4964H24.4379V20.927C24.4379 22.0072 24.0088 23.0432 23.245 23.8071C22.4811 24.5709 21.4452 25 20.3649 25H4.07299C2.99276 25 1.95678 24.5709 1.19295 23.8071C0.429117 23.0432 0 22.0072 0 20.927Z" fill="black"/>
</svg>
