<svg width="24" height="24" viewBox="0 0 24 24" fill="none" xmlns="http://www.w3.org/2000/svg">
<path d="M0 1.324C0 0.593333 0.593333 0 1.324 0H22.676C23.4067 0 24 0.593333 24 1.324V22.676C23.9996 23.027 23.86 23.3636 23.6118 23.6118C23.3636 23.86 23.027 23.9996 22.676 24H1.324C0.972853 24 0.636089 23.8605 0.387791 23.6122C0.139493 23.3639 0 23.0271 0 22.676V1.324ZM2.66667 2.66667V21.3333H21.3333V2.66667H2.66667ZM10.1627 7.22L16.668 11.556C16.7412 11.6047 16.8011 11.6707 16.8426 11.7482C16.8841 11.8256 16.9059 11.9121 16.9059 12C16.9059 12.0879 16.8841 12.1744 16.8426 12.2518C16.8011 12.3293 16.7412 12.3953 16.668 12.444L10.1613 16.78C10.0811 16.8332 9.98798 16.8637 9.89183 16.8682C9.79568 16.8727 9.7001 16.8512 9.61521 16.8058C9.53033 16.7604 9.4593 16.6929 9.40968 16.6104C9.36005 16.528 9.33367 16.4336 9.33333 16.3373V7.66267C9.33351 7.5662 9.35985 7.47159 9.40954 7.38891C9.45924 7.30623 9.53043 7.23857 9.61553 7.19315C9.70063 7.14772 9.79646 7.12623 9.89281 7.13096C9.98916 7.13569 10.0824 7.16646 10.1627 7.22Z" fill="black"/>
</svg>
