<svg width="101" height="101" viewBox="0 0 101 101" fill="none" xmlns="http://www.w3.org/2000/svg">
<path d="M76.8955 0.333496H23.7705C10.8263 0.333496 0.333008 10.8268 0.333008 23.771V76.896C0.333008 89.8402 10.8263 100.333 23.7705 100.333H76.8955C89.8397 100.333 100.333 89.8402 100.333 76.896V23.771C100.333 10.8268 89.8397 0.333496 76.8955 0.333496Z" fill="#242938"/>
<path d="M13.5034 39.4773C13.5034 39.4773 11.6538 38.1441 13.8733 36.364L19.0437 31.7405C19.0437 31.7405 20.5234 30.1839 22.0874 31.5402L69.8019 67.6648V84.9874C69.8019 84.9874 69.7788 87.7077 66.2878 87.4069L13.5034 39.4773Z" fill="#2489CA"/>
<path d="M25.8013 50.6429L13.5029 61.8237C13.5029 61.8237 12.2388 62.764 13.5029 64.444L19.2127 69.6374C19.2127 69.6374 20.5689 71.094 22.5724 69.437L35.6107 59.5507L25.8013 50.6429Z" fill="#1070B3"/>
<path d="M47.3931 50.7355L69.9482 33.5128L69.8017 16.2827C69.8017 16.2827 68.8384 12.5222 65.6251 14.4796L35.6111 41.7964L47.3931 50.7355Z" fill="#0877B9"/>
<path d="M66.2874 87.4304C67.5976 88.7711 69.1851 88.332 69.1851 88.332L86.762 79.6707C89.012 78.1371 88.696 76.2339 88.696 76.2339V24.5125C88.696 22.239 86.3687 21.4535 86.3687 21.4535L71.1347 14.1097C67.8058 12.0523 65.6251 14.4796 65.6251 14.4796C65.6251 14.4796 68.4298 12.4609 69.8017 16.2827L69.8015 84.6714C69.8033 85.1378 69.7006 85.5987 69.5011 86.0203C69.1003 86.8293 68.2296 87.5843 66.1413 87.2683L66.2874 87.4304Z" fill="#3C99D4"/>
</svg>
