<svg width="56" height="55" viewBox="0 0 56 55" fill="none" xmlns="http://www.w3.org/2000/svg">
<path d="M42.4429 0H13.2241C6.10483 0 0.333496 5.77133 0.333496 12.8906V42.1094C0.333496 49.2287 6.10483 55 13.2241 55H42.4429C49.5622 55 55.3335 49.2287 55.3335 42.1094V12.8906C55.3335 5.77133 49.5622 0 42.4429 0Z" fill="#242938"/>
<path d="M7.5771 21.529C7.5771 21.529 6.55981 20.7958 7.78056 19.8167L10.6242 17.2738C10.6242 17.2738 11.4381 16.4177 12.2983 17.1636L38.5412 37.0321V46.5596C38.5412 46.5596 38.5286 48.0558 36.6085 47.8903L7.5771 21.529Z" fill="#2489CA"/>
<path d="M14.3411 27.6701L7.57695 33.8195C7.57695 33.8195 6.88172 34.3367 7.57695 35.2607L10.7173 38.117C10.7173 38.117 11.4633 38.9182 12.5652 38.0068L19.7363 32.5693L14.3411 27.6701Z" fill="#1070B3"/>
<path d="M26.2163 27.7211L38.6216 18.2486L38.541 8.7721C38.541 8.7721 38.0112 6.7038 36.2439 7.78038L19.7362 22.8046L26.2163 27.7211Z" fill="#0877B9"/>
<path d="M36.6086 47.9033C37.3292 48.6406 38.2023 48.3991 38.2023 48.3991L47.8697 43.6354C49.1072 42.7919 48.9333 41.7452 48.9333 41.7452V13.2984C48.9333 12.048 47.6533 11.6159 47.6533 11.6159L39.2746 7.57689C37.4437 6.4453 36.2439 7.78038 36.2439 7.78038C36.2439 7.78038 37.7865 6.67007 38.541 8.7721L38.5414 46.3858C38.5423 46.6423 38.4859 46.8958 38.3761 47.1277C38.1557 47.5726 37.6768 47.9879 36.5283 47.8141L36.6086 47.9033Z" fill="#3C99D4"/>
</svg>
