<svg width="55" height="55" viewBox="0 0 55 55" fill="none" xmlns="http://www.w3.org/2000/svg">
<path d="M42.1094 0H12.8906C5.77133 0 0 5.77133 0 12.8906V42.1094C0 49.2287 5.77133 55 12.8906 55H42.1094C49.2287 55 55 49.2287 55 42.1094V12.8906C55 5.77133 49.2287 0 42.1094 0Z" fill="#242938"/>
<path d="M27 6C14.878 6 5 15.878 5 28C5 40.122 14.878 50 27 50C39.122 50 49 40.122 49 28C49 15.878 39.122 6 27 6ZM7.222 28C7.222 25.14 7.838 22.412 8.938 19.948L18.376 45.798C11.776 42.586 7.222 35.832 7.222 28ZM27 47.778C25.064 47.778 23.194 47.492 21.412 46.964L27.352 29.716L33.424 46.37C33.468 46.458 33.512 46.568 33.556 46.634C31.51 47.382 29.31 47.778 27 47.778ZM29.728 18.716C30.916 18.65 31.994 18.518 31.994 18.518C33.05 18.386 32.94 16.824 31.862 16.89C31.862 16.89 28.65 17.132 26.582 17.132C24.646 17.132 21.368 16.89 21.368 16.89C20.312 16.846 20.18 18.474 21.258 18.54C21.258 18.54 22.27 18.672 23.326 18.738L26.406 27.186L22.072 40.166L14.878 18.716C16.066 18.672 17.144 18.54 17.144 18.54C18.2 18.408 18.09 16.846 17.012 16.912C17.012 16.912 13.8 17.154 11.732 17.154C11.358 17.154 10.918 17.154 10.456 17.132C14.02 11.764 20.092 8.222 27 8.222C32.148 8.222 36.834 10.18 40.354 13.414C40.266 13.414 40.178 13.392 40.09 13.392C38.154 13.392 36.768 15.086 36.768 16.912C36.768 18.54 37.714 19.926 38.704 21.554C39.452 22.874 40.332 24.568 40.332 27.01C40.332 28.704 39.672 30.662 38.836 33.412L36.856 40.012L29.728 18.716ZM44.358 18.518C46.8279 23.0406 47.4352 28.3487 46.0504 33.3123C44.6657 38.2759 41.3984 42.5031 36.944 45.094L42.994 27.626C44.116 24.81 44.49 22.544 44.49 20.542C44.49 19.816 44.446 19.134 44.358 18.518Z" fill="#F0F0F0"/>
</svg>
