<?xml version="1.0" standalone="no"?>
<!DOCTYPE svg PUBLIC "-//W3C//DTD SVG 20010904//EN"
 "http://www.w3.org/TR/2001/REC-SVG-20010904/DTD/svg10.dtd">
<svg version="1.0" xmlns="http://www.w3.org/2000/svg"
 width="1400.000000pt" height="1400.000000pt" viewBox="0 0 1400.000000 1400.000000"
 preserveAspectRatio="xMidYMid meet">
<metadata>
Created by potrace 1.14, written by Peter Selinger 2001-2017
</metadata>
<g transform="translate(0.000000,1400.000000) scale(0.100000,-0.100000)"
fill="#000000" stroke="none">
<path d="M2490 7000 l0 -7000 1580 0 1580 0 0 2940 0 2940 23 1 c12 1 27 0 32
-1 19 -4 145 -1 153 4 4 2 14 1 21 -4 8 -4 25 -4 40 0 14 4 36 4 47 0 11 -5
27 -4 35 0 7 5 18 5 25 -1 8 -6 14 -7 18 0 4 6 18 6 34 1 16 -4 36 -4 45 2 10
5 17 5 17 0 0 -5 17 -6 40 -2 23 4 43 3 46 -2 3 -5 11 -5 18 1 6 5 18 6 25 2
7 -5 28 -5 47 -1 18 4 35 5 38 2 7 -6 133 -5 144 2 4 2 14 1 21 -4 8 -4 25 -4
40 0 14 4 36 4 47 0 11 -5 27 -4 35 0 7 5 18 5 25 -1 8 -6 14 -7 18 0 4 6 18
6 34 1 16 -4 36 -4 45 2 11 5 17 5 17 0 0 -6 14 -7 34 -2 19 4 40 4 47 -1 7
-4 18 -4 24 1 6 5 17 5 24 1 7 -5 28 -5 47 -1 18 4 35 5 38 2 7 -6 133 -5 144
2 4 2 14 1 21 -4 8 -4 25 -4 40 0 14 4 36 4 47 0 11 -5 27 -4 35 0 7 5 18 5
25 -1 8 -6 14 -7 18 0 4 6 18 6 34 1 16 -4 36 -4 45 2 10 5 17 5 17 0 0 -5 17
-6 40 -2 23 4 43 3 46 -2 3 -5 11 -5 18 1 6 5 18 6 25 2 7 -5 28 -5 46 -1 18
4 39 4 46 -1 7 -4 21 -3 30 2 11 6 20 5 24 -1 3 -5 15 -6 28 -1 12 5 29 7 37
5 47 -10 57 -11 72 -3 10 6 19 5 23 -1 3 -5 15 -6 28 -1 12 5 31 6 42 4 27 -6
163 -5 173 1 4 2 14 1 21 -4 8 -4 25 -4 40 0 14 4 36 4 47 0 11 -5 27 -4 35 0
7 5 18 5 25 -1 8 -6 14 -7 18 0 4 6 18 6 34 1 16 -4 36 -4 45 2 11 5 17 5 17
0 0 -6 14 -7 34 -2 19 4 40 4 47 -1 7 -4 18 -4 24 1 6 5 17 5 24 1 7 -5 28 -5
46 -1 18 4 39 4 46 -1 7 -4 21 -3 30 2 11 6 20 5 24 -1 3 -5 15 -6 28 -1 20 8
32 7 77 -3 8 -2 23 1 32 5 10 6 19 5 23 -1 3 -5 16 -6 28 -2 26 9 48 9 63 0 5
-4 27 -3 47 1 20 5 38 7 41 4 8 -8 69 -9 97 -2 15 4 32 3 40 -1 7 -5 21 -4 31
1 12 6 18 6 18 0 0 -7 8 -7 23 -2 12 5 31 5 42 1 11 -4 29 -4 40 0 11 4 29 4
40 0 11 -4 30 -3 43 1 13 5 21 6 19 1 -6 -9 87 -7 102 3 6 3 11 2 11 -4 0 -7
8 -7 23 -2 12 5 31 5 42 1 11 -4 25 -3 32 2 7 5 14 5 17 -1 4 -6 16 -7 29 -2
20 8 32 7 77 -3 8 -2 23 1 32 5 10 6 19 5 23 -1 3 -5 15 -6 28 -1 12 5 31 6
42 4 27 -6 163 -5 173 1 4 2 14 1 21 -4 8 -4 25 -4 40 0 14 4 36 4 47 0 11 -5
27 -4 35 0 7 5 18 5 25 -1 8 -6 14 -7 18 0 4 6 18 6 34 1 16 -4 36 -4 45 2 11
5 17 5 17 0 0 -6 14 -7 34 -2 19 4 40 4 47 -1 7 -4 18 -4 24 1 6 5 17 5 24 1
7 -5 28 -5 46 -1 18 4 39 4 46 -1 7 -4 21 -3 30 2 11 6 20 5 24 -1 3 -5 15 -6
28 -1 12 5 31 6 42 4 11 -3 30 -4 43 -4 28 1 49 1 65 1 6 0 23 1 37 3 14 2 30
0 35 -4 6 -4 22 -5 38 -2 l27 5 0 1359 0 1359 -172 1 c-95 1 -177 0 -183 -1
-5 -2 -26 -2 -45 0 -19 1 -42 2 -50 1 -8 0 -62 0 -120 0 -58 0 -111 0 -117 0
-244 -2 -633 -3 -673 -1 -19 1 -42 2 -50 1 -8 0 -62 0 -120 0 -58 0 -111 0
-117 0 -244 -2 -633 -3 -673 -1 -19 1 -42 2 -50 1 -8 0 -62 0 -120 0 -58 0
-111 0 -117 0 -244 -2 -633 -3 -673 -1 -19 1 -42 2 -50 1 -8 0 -62 0 -120 0
-58 0 -111 0 -117 0 -244 -2 -633 -3 -673 -1 -19 1 -42 2 -50 1 -8 0 -62 0
-120 0 -58 0 -111 0 -117 0 -128 -1 -236 -1 -414 -1 -119 1 -220 0 -225 -1 -5
-1 -24 -1 -41 0 l-33 1 0 1345 0 1345 25 -10 c15 -6 27 -6 30 0 3 6 15 6 30 0
16 -6 25 -6 25 1 0 6 6 6 18 0 11 -6 24 -6 34 0 10 6 19 6 22 0 4 -6 18 -6 36
-1 17 5 30 5 30 0 0 -5 13 -5 30 0 17 5 30 5 30 0 0 -5 13 -5 30 0 17 5 30 5
30 0 0 -4 15 -4 34 0 19 4 40 4 47 -1 7 -4 21 -3 30 2 11 5 20 5 24 0 3 -6 17
-6 35 -1 17 5 30 5 30 0 0 -5 13 -5 30 0 17 5 30 5 30 0 0 -5 13 -5 30 0 16 5
30 5 30 0 0 -4 15 -4 34 0 19 4 40 4 47 -1 7 -4 21 -3 30 2 11 5 20 5 24 0 3
-6 17 -6 35 -1 17 5 30 5 30 0 0 -5 13 -5 30 0 17 5 30 5 30 0 0 -5 13 -5 30
0 17 5 30 5 30 0 0 -4 15 -4 34 0 19 4 40 4 47 -1 7 -4 21 -3 30 2 11 5 20 5
24 0 3 -6 17 -6 35 -1 17 5 30 5 30 0 0 -5 13 -5 30 0 17 5 30 5 30 0 0 -5 13
-5 30 0 17 5 30 5 30 0 0 -4 15 -4 34 0 19 4 40 4 47 -1 7 -4 21 -3 30 2 11 5
20 5 24 0 3 -6 17 -6 35 -1 17 5 30 5 30 0 0 -5 13 -5 30 0 17 5 30 5 30 0 0
-5 13 -5 30 0 17 5 30 5 30 0 0 -4 15 -4 34 0 19 4 40 4 47 -1 7 -4 21 -3 30
2 11 5 20 5 24 0 3 -6 17 -6 35 -1 17 5 30 5 30 0 0 -5 13 -5 30 0 17 5 30 5
30 0 0 -5 13 -5 30 0 17 5 30 5 30 1 0 -4 27 -4 60 -1 33 3 60 3 60 -1 0 -4
14 -4 30 1 16 5 30 6 30 2 0 -8 68 -7 76 1 3 3 17 2 30 -3 14 -6 26 -6 29 0 3
5 15 6 28 1 12 -5 32 -5 45 0 12 5 22 5 22 1 0 -4 25 -7 55 -7 30 0 55 2 55 5
0 3 18 5 40 5 22 0 40 -2 40 -5 0 -7 127 -3 139 4 5 4 12 2 16 -4 4 -6 12 -7
24 -1 9 5 23 6 30 2 7 -5 28 -5 46 -1 18 4 39 4 46 -1 7 -4 20 -4 29 1 9 5 22
5 30 0 8 -5 18 -6 23 -3 13 8 97 9 97 1 0 -4 14 -3 30 2 17 5 30 6 30 2 0 -8
68 -7 76 1 3 3 17 2 30 -3 14 -6 26 -6 29 0 3 5 15 6 28 1 12 -5 32 -5 45 0
12 5 22 5 22 1 0 -4 25 -7 55 -7 30 0 55 2 55 5 0 3 18 5 40 5 22 0 40 -2 40
-5 0 -7 127 -3 139 4 5 4 12 2 16 -4 4 -6 12 -7 24 -1 9 5 23 6 30 2 7 -5 28
-5 46 -1 18 4 39 4 46 -1 7 -4 20 -4 29 1 9 5 22 5 30 0 8 -5 18 -6 23 -3 13
8 97 9 97 1 0 -4 14 -3 30 2 17 5 30 6 30 2 0 -8 68 -7 76 1 3 3 17 2 30 -3
14 -6 26 -6 29 0 3 5 15 6 28 1 12 -5 32 -5 45 0 12 5 22 5 22 1 0 -4 25 -7
55 -7 30 0 55 2 55 5 0 3 18 5 40 5 22 0 40 -2 40 -5 0 -7 127 -3 139 4 5 4
12 2 16 -4 4 -6 12 -7 24 -1 9 5 23 6 30 2 7 -5 28 -5 46 -1 18 4 39 4 46 -1
7 -4 20 -4 29 1 9 5 22 5 30 0 8 -5 18 -6 23 -3 13 8 97 9 97 1 0 -4 14 -3 30
2 17 5 30 6 30 2 0 -8 68 -7 76 1 3 3 17 2 30 -3 14 -6 26 -6 29 0 3 5 15 6
28 1 12 -5 32 -5 45 0 12 5 22 5 22 1 0 -4 25 -7 55 -7 30 0 55 2 55 5 0 3 18
5 40 5 22 0 40 -2 40 -5 0 -7 130 -4 137 4 3 3 14 1 24 -4 12 -7 20 -7 24 0 4
6 12 7 22 1 9 -4 30 -5 48 -1 18 4 39 4 46 -1 7 -4 20 -4 29 1 10 5 21 5 26 1
5 -5 19 -5 32 0 l22 8 0 1356 0 1355 -4510 0 -4510 0 0 -7000z"/>
</g>
</svg>
